<svg width="166" height="30" viewBox="0 0 166 30" fill="none" xmlns="http://www.w3.org/2000/svg">
<path d="M10.6343 29.8868C14.294 29.8868 17.2458 29.0117 19.4897 27.2616C21.7336 25.5115 23.136 23.0074 23.697 19.7495L25.2196 10.9046C25.7806 7.59286 25.2196 4.94748 23.5367 2.96849C21.8538 0.989495 19.1958 0 15.5628 0C11.9031 0 8.94467 0.888526 6.68741 2.66558C4.43015 4.44263 3.02104 6.96012 2.46006 10.2181L0.897344 19.0629C0.336369 22.3747 0.910701 25.0066 2.62034 26.9587C4.32998 28.9108 7.00129 29.8868 10.6343 29.8868ZM11.3155 25.1614C9.25855 25.1614 7.75593 24.6633 6.80762 23.6671C5.8593 22.6709 5.55878 21.2439 5.90605 19.386L7.46877 10.5008C7.78933 8.64294 8.59072 7.21591 9.87295 6.21968C11.1552 5.22346 12.8247 4.72534 14.8817 4.72534C16.9386 4.72534 18.4345 5.21673 19.3695 6.19949C20.3044 7.18225 20.625 8.61601 20.3311 10.5008L18.7283 19.386C18.4078 21.2708 17.6064 22.7045 16.3242 23.6873C15.0419 24.6701 13.3724 25.1614 11.3155 25.1614ZM28.1247 29.281C28.9528 29.281 29.4336 28.8636 29.5672 28.029L32.1717 13.0048C32.2786 12.7625 32.4121 12.6009 32.5724 12.5201C33.6142 12.197 34.7228 12.0355 35.8982 12.0355C37.2071 12.0355 38.1287 12.3384 38.663 12.9442C39.1973 13.55 39.3442 14.553 39.1038 15.9531L37.0201 28.029C36.94 28.4867 36.9734 28.8098 37.1203 28.9983C37.2672 29.1867 37.5678 29.281 38.0219 29.281H40.1856C41.0405 29.281 41.5347 28.8636 41.6682 28.029L43.7919 15.7915C44.0056 14.6338 44.0457 13.6241 43.9121 12.7625C45.3546 12.2778 46.6903 12.0355 47.9191 12.0355C50.537 12.0355 51.6055 13.3414 51.1247 15.9531L49.001 28.029C48.9208 28.4867 48.9542 28.8098 49.1012 28.9983C49.2481 29.1867 49.5486 29.281 50.0027 29.281H52.2066C53.0347 29.281 53.5155 28.8636 53.6491 28.029L55.7327 16.1146C56.1868 13.476 55.893 11.4229 54.8511 9.95553C53.8093 8.48812 51.9661 7.75441 49.3215 7.75441C47.0509 7.75441 44.62 8.21214 42.0289 9.12759C40.9603 8.21214 39.3709 7.75441 37.2606 7.75441C34.6427 7.75441 32.145 8.21214 29.7675 9.12759C29.0997 9.39684 28.6389 9.68628 28.3851 9.99592C28.1314 10.3056 27.9377 10.7835 27.8041 11.4297L24.9191 28.029C24.839 28.4867 24.8724 28.8098 25.0193 28.9983C25.1662 29.1867 25.4667 29.281 25.9208 29.281H28.1247ZM59.7196 29.281C60.5477 29.281 61.0286 28.8636 61.1621 28.029L63.7667 12.9644C63.8735 12.749 63.9937 12.6144 64.1273 12.5605C65.4629 12.2105 66.7852 12.0355 68.0942 12.0355C71.0059 12.0355 72.2214 13.3548 71.7405 15.9935L69.6569 28.029C69.55 28.4867 69.5701 28.8098 69.717 28.9983C69.8639 29.1867 70.1644 29.281 70.6186 29.281H72.8224C73.2765 29.281 73.6104 29.1867 73.8241 28.9983C74.0378 28.8098 74.1981 28.4867 74.305 28.029L76.3485 16.2358C76.8026 13.5702 76.4621 11.4903 75.3268 9.99592C74.1914 8.50158 72.2347 7.75441 69.4565 7.75441C66.4914 7.75441 63.7934 8.21214 61.3625 9.12759C60.6946 9.39684 60.2338 9.68628 59.9801 9.99592C59.7263 10.3056 59.5326 10.7835 59.3991 11.4297L56.514 28.029C56.4339 28.4867 56.4673 28.8098 56.6142 28.9983C56.7611 29.1867 57.0617 29.281 57.5158 29.281H59.7196ZM83.5811 5.77542C84.4893 5.77542 85.1505 5.60041 85.5646 5.25038C85.9786 4.90036 86.2658 4.25416 86.426 3.31178L86.4661 2.94829C86.6531 2.03284 86.6064 1.4001 86.3259 1.05008C86.0454 0.700051 85.4377 0.525038 84.5027 0.525038H84.2222C83.2873 0.525038 82.6194 0.700051 82.2187 1.05008C81.818 1.4001 81.5242 2.03284 81.3372 2.94829L81.2971 3.31178C81.1101 4.22723 81.1636 4.8667 81.4574 5.23019C81.7513 5.59368 82.3523 5.77542 83.2605 5.77542H83.5811ZM80.4156 29.281C81.2437 29.281 81.7245 28.8636 81.8581 28.029L85.0637 9.57185C85.1438 9.11413 85.1104 8.79776 84.9635 8.62274C84.8166 8.44773 84.5161 8.36022 84.0619 8.36022H81.8982C81.4173 8.36022 81.0701 8.44773 80.8564 8.62274C80.6427 8.79776 80.4957 9.11413 80.4156 9.57185L77.21 28.029C77.1299 28.4867 77.1633 28.8098 77.3102 28.9983C77.4571 29.1867 77.7576 29.281 78.2118 29.281H80.4156ZM87.6882 29.281C88.2225 29.281 88.5297 29.0117 88.6098 28.4732L90.6133 17.2455H96.1429C97.6656 17.2455 98.7675 17.5013 99.4487 18.0129C100.13 18.5244 100.684 19.4399 101.112 20.7592L103.636 28.554C103.716 28.8502 103.85 29.0454 104.037 29.1396C104.224 29.2339 104.571 29.281 105.078 29.281H106.361C106.922 29.281 107.109 29.0117 106.922 28.4732L103.997 19.6687C103.542 18.2956 102.835 17.3666 101.873 16.882C103.983 16.5589 105.713 15.7444 107.062 14.4386C108.411 13.1327 109.272 11.3758 109.646 9.16798C110.127 6.52932 109.753 4.44263 108.524 2.9079C107.296 1.37318 105.372 0.605813 102.754 0.605813H91.3746C90.8671 0.605813 90.5599 0.875064 90.453 1.41356L85.7248 28.4732C85.6714 28.7694 85.6914 28.9781 85.7849 29.0992C85.8784 29.2204 86.0721 29.281 86.3659 29.281H87.6882ZM100.03 14.4991H91.0541L93.0175 3.35217H101.993C103.81 3.35217 105.125 3.83682 105.94 4.80612C106.755 5.77542 107.002 7.16206 106.681 8.96604C106.361 10.7431 105.619 12.1095 104.457 13.0654C103.295 14.0212 101.819 14.4991 100.03 14.4991ZM120.044 29.8464C123.597 29.8464 126.449 28.9915 128.599 27.2818C130.75 25.5721 132.105 23.1286 132.666 19.9515L134.309 10.4604C134.87 7.2563 134.343 4.71861 132.727 2.84732C131.11 0.976033 128.553 0.0403876 125.053 0.0403876C121.5 0.0403876 118.629 0.901989 116.438 2.62519C114.248 4.34839 112.885 6.79857 112.351 9.97573L110.668 19.5072C110.107 22.6843 110.648 25.2018 112.291 27.0597C113.934 28.9175 116.518 29.8464 120.044 29.8464ZM120.405 27.1404C117.787 27.1404 115.891 26.4875 114.715 25.1816C113.54 23.8758 113.166 22.0516 113.593 19.7091L115.276 10.1777C115.677 7.78134 116.685 5.9437 118.301 4.66476C119.918 3.38582 122.035 2.74635 124.653 2.74635C127.27 2.74635 129.16 3.39255 130.322 4.68496C131.484 5.97736 131.865 7.80826 131.464 10.1777L129.781 19.7091C129.354 22.0785 128.332 23.9094 126.716 25.2018C125.1 26.4942 122.996 27.1404 120.405 27.1404ZM137.014 29.281C137.522 29.281 137.829 29.0117 137.936 28.4732L140.821 12.0355C141.248 9.58531 141.515 7.17552 141.622 4.80612H141.782C142.37 7.33707 142.984 9.4103 143.625 11.0258L147.913 21.9708C147.993 22.2401 148.087 22.4084 148.193 22.4757C148.3 22.543 148.487 22.5766 148.754 22.5766H149.436C149.863 22.5766 150.21 22.3747 150.477 21.9708L158.451 11.147C160.001 9.04681 161.39 6.94666 162.619 4.84651H162.819C162.017 7.43131 161.416 9.81418 161.016 11.9951L158.131 28.4732C158.077 28.7694 158.097 28.9781 158.191 29.0992C158.284 29.2204 158.478 29.281 158.772 29.281H159.974C160.508 29.281 160.829 29.0117 160.936 28.4732L165.664 1.41356C165.771 0.875064 165.544 0.605813 164.983 0.605813H163.781C163.273 0.605813 162.872 0.834676 162.578 1.2924L149.596 18.9822L142.744 1.25201C142.61 0.821214 142.276 0.605813 141.742 0.605813H140.74C140.233 0.605813 139.926 0.875064 139.819 1.41356L135.091 28.4732C135.037 28.7694 135.057 28.9781 135.151 29.0992C135.244 29.2204 135.438 29.281 135.732 29.281H137.014Z" fill="white"/>
</svg>
