<svg width="78" height="97" viewBox="0 0 78 97" fill="none" xmlns="http://www.w3.org/2000/svg">
<path d="M0 30.8103C0 25.6908 2.7592 20.9687 7.21923 18.4553L32.0374 4.46914C36.3596 2.03339 41.6404 2.03339 45.9626 4.46913L70.7808 18.4553C75.2408 20.9687 78 25.6908 78 30.8103V66.0078C78 71.1273 75.2408 75.8494 70.7808 78.3628L45.9626 92.349C41.6404 94.7847 36.3596 94.7847 32.0374 92.349L7.21924 78.3628C2.7592 75.8494 0 71.1273 0 66.0078V30.8103Z" fill="url(#paint0_linear_11929_43588)"/>
<path d="M3.3623 32.9903C3.3623 27.8749 6.11719 23.1558 10.5717 20.6408L32.0278 8.5269C36.3551 6.08377 41.6454 6.08377 45.9726 8.5269L67.4288 20.6408C71.8833 23.1558 74.6382 27.8749 74.6382 32.9903V63.828C74.6382 68.9434 71.8833 73.6625 67.4288 76.1775L45.9727 88.2914C41.6454 90.7345 36.3551 90.7345 32.0278 88.2914L10.5717 76.1775C6.1172 73.6625 3.3623 68.9434 3.3623 63.828V32.9903Z" fill="#667085"/>
<mask id="mask0_11929_43588" style="mask-type:alpha" maskUnits="userSpaceOnUse" x="3" y="6" width="72" height="85">
<path d="M3.3623 32.9903C3.3623 27.8749 6.11719 23.1558 10.5717 20.6408L32.0278 8.5269C36.3551 6.08377 41.6454 6.08377 45.9726 8.5269L67.4288 20.6408C71.8833 23.1558 74.6382 27.8749 74.6382 32.9903V63.828C74.6382 68.9434 71.8833 73.6625 67.4288 76.1775L45.9727 88.2914C41.6454 90.7345 36.3551 90.7345 32.0278 88.2914L10.5717 76.1775C6.1172 73.6625 3.3623 68.9434 3.3623 63.828V32.9903Z" fill="#5983A9"/>
</mask>
<g mask="url(#mask0_11929_43588)">
<g opacity="0.3">
<path d="M-11.3457 76.4184H89.3452V89.8911H-11.3457V76.4184Z" fill="white" fill-opacity="0.6"/>
<path d="M-11.3457 62.2366H89.3452V75.0002H-11.3457V62.2366Z" fill="white" fill-opacity="0.5"/>
<path d="M-11.3457 48.0547H89.3452V60.8184H-11.3457V48.0547Z" fill="white" fill-opacity="0.4"/>
<path d="M-11.3457 34.582H89.3452V46.6366H-11.3457V34.582Z" fill="white" fill-opacity="0.3"/>
<path d="M-11.3457 20.4002H89.3452V33.1638H-11.3457V20.4002Z" fill="white" fill-opacity="0.2"/>
<path d="M-11.3457 5.50928H89.3452V18.982H-11.3457V5.50928Z" fill="white" fill-opacity="0.1"/>
</g>
</g>
<path d="M38.7957 30.1096C41.399 30.1096 43.5094 27.9992 43.5094 25.3959C43.5094 22.7925 41.399 20.6821 38.7957 20.6821C36.1924 20.6821 34.082 22.7925 34.082 25.3959C34.082 27.9992 36.1924 30.1096 38.7957 30.1096Z" fill="white"/>
<path d="M40.4385 32.356C39.264 32.1176 37.987 32.128 36.8334 32.3999C28.9968 33.3182 26.4523 42.3891 27.1708 49.3054C27.4824 52.2956 32.1961 52.3269 31.8813 49.3054C31.6198 46.7849 31.7317 42.981 33.0715 40.2774C33.0715 43.5636 33.0715 46.8497 33.0715 50.1348C33.0715 50.2509 33.083 50.3597 33.0882 50.4716C33.0851 50.5249 33.0725 50.5699 33.0725 50.6243C33.0725 58.4463 33.0589 66.2653 32.7358 74.0811C32.5925 77.5555 37.9797 77.5419 38.1219 74.0811C38.375 67.9554 38.4388 61.8266 38.4535 55.6968C38.7087 55.7135 38.9638 55.7135 39.219 55.6988C39.2347 61.8287 39.2964 67.9575 39.5474 74.0811C39.6907 77.5419 45.0779 77.5555 44.9336 74.0811C44.6104 66.2653 44.5989 58.4463 44.5989 50.6243C44.5989 50.3816 44.5665 50.1609 44.5173 49.9486C44.51 46.5527 44.3803 43.1536 44.4201 39.7597C46.0244 42.4759 46.1708 46.6186 45.8926 49.3033C45.5768 52.3228 50.2915 52.2924 50.6032 49.3033C51.3384 42.2437 48.6715 32.9375 40.4385 32.356Z" fill="white"/>
<defs>
<linearGradient id="paint0_linear_11929_43588" x1="39" y1="0.54541" x2="39" y2="96.2727" gradientUnits="userSpaceOnUse">
<stop stop-color="#828A9B"/>
<stop offset="1" stop-color="#6A7488"/>
</linearGradient>
</defs>
</svg>
