<svg width="16" height="20" viewBox="0 0 16 20" fill="none" xmlns="http://www.w3.org/2000/svg">
<path d="M14.1668 10.4165V5.6665C14.1668 4.26637 14.1668 3.56631 13.8943 3.03153C13.6547 2.56112 13.2722 2.17867 12.8018 1.93899C12.267 1.6665 11.567 1.6665 10.1668 1.6665H4.8335C3.43336 1.6665 2.7333 1.6665 2.19852 1.93899C1.72811 2.17867 1.34566 2.56112 1.10598 3.03153C0.833496 3.56631 0.833496 4.26637 0.833496 5.6665V14.3332C0.833496 15.7333 0.833496 16.4334 1.10598 16.9681C1.34566 17.4386 1.72811 17.821 2.19852 18.0607C2.7333 18.3332 3.43336 18.3332 4.8335 18.3332H7.50016M9.16683 9.1665H4.16683M5.8335 12.4998H4.16683M10.8335 5.83317H4.16683M9.5835 15.8332L11.2502 17.4998L15.0002 13.7498" stroke="#12B76A" stroke-width="1.66667" stroke-linecap="round" stroke-linejoin="round"/>
</svg>
