<svg width="24" height="40" viewBox="0 0 24 40" fill="none" xmlns="http://www.w3.org/2000/svg">
<mask id="mask0_10033_28306" style="mask-type:luminance" maskUnits="userSpaceOnUse" x="0" y="0" width="24" height="40">
<path d="M0 0H23.518V40H0V0Z" fill="white"/>
</mask>
<g mask="url(#mask0_10033_28306)">
<path d="M23.4914 2.15708C23.5667 1.07326 22.7483 0.134718 21.6624 0.0578992C20.5838 -0.012126 19.6338 0.797866 19.5544 1.88116C19.5476 1.97105 18.8353 10.8789 13.4277 10.8789H10.1469C4.76965 10.8789 4.03491 2.07086 4.0208 1.88325C3.94503 0.798911 2.99917 0.00459642 1.91587 0.0558089C0.827866 0.13106 0.00794558 1.0717 0.0831964 2.15708C0.114028 2.60545 0.839885 11.809 6.97178 14.2296L7.34281 22.8845L4.68865 37.1984C4.45611 38.4536 5.28752 39.6602 6.54536 39.8922C7.8032 40.1206 9.01244 39.2944 9.24551 38.0397L11.7842 24.3446L14.3302 38.0402C14.5371 39.1533 15.5101 39.9309 16.6049 39.9309C16.745 39.9309 16.8876 39.9184 17.0303 39.8917C18.2887 39.6592 19.119 38.4526 18.886 37.1973L16.2255 22.884L16.5961 14.2328C22.7347 11.8169 23.4606 2.60598 23.4914 2.15708Z" fill="white"/>
</g>
<path d="M11.7872 9.88466C14.062 9.88466 15.9062 8.04467 15.9062 5.77461C15.9062 3.50402 14.062 1.66455 11.7872 1.66455C9.51245 1.66455 7.66881 3.50454 7.66881 5.77461C7.66881 8.04415 9.51245 9.88466 11.7872 9.88466Z" fill="white"/>
</svg>
