<svg width="110" height="135" viewBox="0 0 110 135" fill="none" xmlns="http://www.w3.org/2000/svg">
<path d="M0 42.6812C0 35.4614 3.89117 28.8021 10.181 25.2575L45.181 5.53345C51.2764 2.09843 58.7236 2.09843 64.819 5.53345L99.819 25.2575C106.109 28.8021 110 35.4614 110 42.6812V92.3188C110 99.5386 106.109 106.198 99.819 109.743L64.819 129.467C58.7236 132.902 51.2764 132.902 45.181 129.467L10.181 109.743C3.89117 106.198 0 99.5386 0 92.3188V42.6812Z" fill="url(#paint0_linear_29_228)"/>
<path d="M4.74121 45.7556C4.74121 38.5415 8.62631 31.8865 14.9083 28.3397L45.1669 11.2559C51.2695 7.81048 58.7302 7.81048 64.8327 11.2559L95.0913 28.3397C101.373 31.8865 105.258 38.5415 105.258 45.7556V89.2446C105.258 96.4587 101.373 103.114 95.0913 106.661L64.8327 123.744C58.7302 127.19 51.2695 127.19 45.1669 123.744L14.9083 106.661C8.62631 103.114 4.74121 96.4587 4.74121 89.2446V45.7556Z" fill="#5D8815"/>
<mask id="mask0_29_228" style="mask-type:alpha" maskUnits="userSpaceOnUse" x="4" y="8" width="102" height="119">
<path d="M4.74121 45.7556C4.74121 38.5415 8.62631 31.8865 14.9083 28.3397L45.1669 11.2559C51.2695 7.81048 58.7302 7.81048 64.8327 11.2559L95.0913 28.3397C101.373 31.8865 105.258 38.5415 105.258 45.7556V89.2446C105.258 96.4587 101.373 103.114 95.0913 106.661L64.8327 123.744C58.7302 127.19 51.2695 127.19 45.1669 123.744L14.9083 106.661C8.62631 103.114 4.74121 96.4587 4.74121 89.2446V45.7556Z" fill="#5983A9"/>
</mask>
<g mask="url(#mask0_29_228)">
<g opacity="0.3">
<path d="M-16 109H126V128H-16V109Z" fill="white" fill-opacity="0.6"/>
<path d="M-16 89H126V107H-16V89Z" fill="white" fill-opacity="0.5"/>
<path d="M-16 69H126V87H-16V69Z" fill="white" fill-opacity="0.4"/>
<path d="M-16 50H126V67H-16V50Z" fill="white" fill-opacity="0.3"/>
<path d="M-16 30H126V48H-16V30Z" fill="white" fill-opacity="0.2"/>
<path d="M-16 9H126V28H-16V9Z" fill="white" fill-opacity="0.1"/>
</g>
</g>
<path d="M57.9545 48.2708L57.4902 59.1028C60.3428 58.9329 62.6067 56.5693 62.6119 53.673C62.6169 50.9288 60.5929 48.6555 57.9545 48.2708Z" fill="white"/>
<path d="M69.3533 80.2373H61.7819L61.8103 64.6782C61.8134 62.9409 60.4077 61.5299 58.6703 61.5267C58.2327 61.526 57.803 61.5583 57.3823 61.6195C57.2561 64.5614 57.2576 64.5259 57.1612 66.7767C57.095 65.7856 54.8914 36.2967 54.8914 36.2967C54.7813 34.9224 53.5753 33.8983 52.204 34.0081C50.8299 34.1181 49.8054 35.3214 49.9154 36.6954L52.139 64.4367C50.7521 65.9822 49.9057 68.0233 49.9017 70.2633L49.8821 81.0228L22.2084 94.9641C20.6367 95.759 20.007 97.6778 20.8021 99.2496C21.5972 100.822 23.5162 101.451 25.0873 100.656L52.9571 86.6156H66.164V97.8105C66.164 99.5719 67.5918 101 69.3531 101C71.1145 101 72.5423 99.5719 72.5423 97.8105V83.4263C72.5425 81.665 71.1146 80.2373 69.3533 80.2373Z" fill="white"/>
<defs>
<linearGradient id="paint0_linear_29_228" x1="55" y1="0" x2="55" y2="135" gradientUnits="userSpaceOnUse">
<stop stop-color="#B6FF3C"/>
<stop offset="1" stop-color="#273809"/>
</linearGradient>
</defs>
</svg>
